<?xml version="1.0" encoding="utf-8"?>
<!-- Generator: Adobe Illustrator 21.0.0, SVG Export Plug-In . SVG Version: 6.00 Build 0)  -->
<svg version="1.1" id="Layer_1" xmlns="http://www.w3.org/2000/svg" xmlns:xlink="http://www.w3.org/1999/xlink" x="0px" y="0px"
	 viewBox="0 0 50 116" style="enable-background:new 0 0 50 116;" xml:space="preserve">
<style type="text/css">
	.st0{fill:#FF0000;}
</style>
<title>Untitled 2</title>
<desc>Created with Sketch.</desc>
<g id="Page-1">
	
		<g id="noun_131552_cc" transform="translate(27.000000, 55.500000) rotate(-29.000000) translate(-27.000000, -55.500000) translate(-15.000000, 13.000000)">
		<path id="Shape" d="M69.7,18c-1.2-1.1-2.1-2-3.1-3c0.3-0.3,7-6.9,10-9.8c0.4-0.4,0.7-1,0.7-1.6c0.2-1.6,1.4-2.8,3-2.8
			c1.5,0,2.8,1.2,2.9,2.8c0.1,1.6-1,3-2.6,3c-1,0-1.3,0.6-1.9,1.2C75.7,11.2,72.8,14.6,69.7,18z M79.1,4.9c0.7,0.6,1.7,0.6,2.3,0
			c0.7-0.7,0.7-1.6,0-2.3c-0.7-0.7-1.7-0.7-2.3,0C78.4,3.2,78.4,4.3,79.1,4.9z"/>
		<path id="Shape_1_" d="M76.4,26.2c0-0.2,0-0.4-0.1-0.7c-0.2-0.4-0.6-0.8-1-1c-2.6-2.5-5.1-5-7.7-7.6c-2.5-2.4-5-4.9-7.6-7.2
			c-0.4-0.6-1-1-1.7-1c0,0-0.1,0-0.1,0c-0.2,0-0.9,0.2-1,0.3c-0.5,0.4-0.9,1-0.9,1.7c0,1.1,0.9,2,2,2c0.4,0,0.7-0.1,1-0.3
			c0,0,0.1,0.1,0.1,0.1c1.2,1.2,2.3,2.5,3.4,3.8c1.4,1.8,2.7,3.6,4.8,4.8c1.6,0.9,3,2.2,4.4,3.5c0.2,0.2,0.4,0.5,0.6,0.8
			c-0.1,0.2-0.2,0.5-0.2,0.8c0,1.1,0.9,2,2,2S76.4,27.3,76.4,26.2C76.4,26.2,76.4,26.2,76.4,26.2z"/>
		<path id="Shape_2_" d="M67.1,21.5l-3-0.8c0,0-1-2.8-1.1-2.9c-0.5,0.6-1,1.2-1.5,1.7c0.1,0.1-9.6,10.1-14.5,15.1
			C38.8,42.8,6.5,75.4,5.2,76.8c-2.1,2.1-2.7,3.1-4,5.8c-0.3,0.7-0.7,1.4-1,2.1c0.1,0,0.1,0,0.1,0c0.3-0.1,1.7-0.8,2-1
			c3-1.3,4.5-2.6,6.8-4.9C10.6,77.4,67.1,21.5,67.1,21.5z"/>
	</g>
	<path id="Shape_3_" class="st0" d="M38,86c-4.6-5.9-4.7-12.7-2.3-18.7c-5.1,5-8,11.2-6,17.4c0.3,0.8,0.4,1.6,0.5,2.4l0,1L30,88.1
		l-1.2-2.8c-1.7-4.7-2-9.7-0.3-14.8c3.4-10-1-19.7-9-27.6c3.7,9.5,3.3,20.3-4.1,29.9c-1.4,1.8-2.6,3.7-3.6,5.6l-0.6,1.3l0-0.3
		c1.5-6.4-1.8-12.2-7.2-16.6c2.8,5.7,3.3,12.4-0.9,18.9c-3.5,6.6-4.3,14.9-1.6,21c4.2,8.8,9.8,12.9,17.5,13.1c1.1,0,2.2,0,3.4-0.2
		c6.2-0.7,14-3.7,16.5-10.9C41.5,98.3,42.6,92,38,86z"/>
</g>
</svg>
